<?xml version="1.0" encoding="UTF-8"?><svg xmlns="http://www.w3.org/2000/svg" xmlns:xlink="http://www.w3.org/1999/xlink" fill-opacity="1" color-rendering="auto" color-interpolation="auto" text-rendering="auto" stroke="black" stroke-linecap="square" width="1419" stroke-miterlimit="10" shape-rendering="auto" stroke-opacity="1" fill="black" stroke-dasharray="none" font-weight="normal" stroke-width="1" height="894" font-family="'Dialog'" font-style="normal" stroke-linejoin="miter" font-size="12px" stroke-dashoffset="0" image-rendering="auto">
  <!--Generated by ySVG 2.5-->
  <defs id="genericDefs"/>
  <g>
    <defs id="defs1">
      <clipPath clipPathUnits="userSpaceOnUse" id="clipPath1">
        <path d="M0 0 L1419 0 L1419 894 L0 894 L0 0 Z"/>
      </clipPath>
      <clipPath clipPathUnits="userSpaceOnUse" id="clipPath2">
        <path d="M-376 -223 L1043 -223 L1043 671 L-376 671 L-376 -223 Z"/>
      </clipPath>
      <clipPath clipPathUnits="userSpaceOnUse" id="clipPath3">
        <path d="M-86 -159 L-86 -20 L115 -20 L115 -159 Z"/>
      </clipPath>
      <clipPath clipPathUnits="userSpaceOnUse" id="clipPath4">
        <path d="M217 -159 L217 -20 L418 -20 L418 -159 Z"/>
      </clipPath>
      <clipPath clipPathUnits="userSpaceOnUse" id="clipPath5">
        <path d="M-360 -207 L-360 -160 L-212 -160 L-212 -207 Z"/>
      </clipPath>
      <clipPath clipPathUnits="userSpaceOnUse" id="clipPath6">
        <path d="M-86 9 L-86 148 L115 148 L115 9 Z"/>
      </clipPath>
      <clipPath clipPathUnits="userSpaceOnUse" id="clipPath7">
        <path d="M217 9 L217 148 L418 148 L418 9 Z"/>
      </clipPath>
      <clipPath clipPathUnits="userSpaceOnUse" id="clipPath8">
        <path d="M521 178 L521 317 L722 317 L722 178 Z"/>
      </clipPath>
      <clipPath clipPathUnits="userSpaceOnUse" id="clipPath9">
        <path d="M826 178 L826 317 L1027 317 L1027 178 Z"/>
      </clipPath>
      <clipPath clipPathUnits="userSpaceOnUse" id="clipPath10">
        <path d="M521 9 L521 148 L722 148 L722 9 Z"/>
      </clipPath>
      <clipPath clipPathUnits="userSpaceOnUse" id="clipPath11">
        <path d="M826 9 L826 148 L1027 148 L1027 9 Z"/>
      </clipPath>
      <clipPath clipPathUnits="userSpaceOnUse" id="clipPath12">
        <path d="M-86 347 L-86 486 L115 486 L115 347 Z"/>
      </clipPath>
      <clipPath clipPathUnits="userSpaceOnUse" id="clipPath13">
        <path d="M217 347 L217 486 L418 486 L418 347 Z"/>
      </clipPath>
      <clipPath clipPathUnits="userSpaceOnUse" id="clipPath14">
        <path d="M-86 516 L-86 655 L115 655 L115 516 Z"/>
      </clipPath>
      <clipPath clipPathUnits="userSpaceOnUse" id="clipPath15">
        <path d="M217 516 L217 655 L418 655 L418 516 Z"/>
      </clipPath>
    </defs>
    <g fill="white" text-rendering="geometricPrecision" shape-rendering="geometricPrecision" transform="translate(376,223)" stroke="white">
      <rect x="-376" width="1419" height="894" y="-223" clip-path="url(#clipPath2)" stroke="none"/>
    </g>
    <g fill="silver" text-rendering="geometricPrecision" shape-rendering="geometricPrecision" transform="matrix(1,0,0,1,376,223)" stroke="silver">
      <rect x="-85" width="199" height="137" y="-158" clip-path="url(#clipPath2)" stroke="none"/>
      <rect x="-86" y="-159" clip-path="url(#clipPath2)" fill="white" width="1" height="139" stroke="none"/>
      <rect x="-85" y="-159" clip-path="url(#clipPath2)" fill="white" width="199" height="1" stroke="none"/>
      <rect x="-85" y="-21" clip-path="url(#clipPath2)" fill="rgb(134,134,134)" width="200" height="1" stroke="none"/>
      <rect x="114" y="-159" clip-path="url(#clipPath2)" fill="rgb(134,134,134)" width="1" height="138" stroke="none"/>
    </g>
    <g text-rendering="geometricPrecision" stroke-miterlimit="1.45" shape-rendering="geometricPrecision" font-family="sans-serif" transform="matrix(1,0,0,1,376,223)" stroke-linecap="butt">
      <text x="-34.2837" xml:space="preserve" y="-143.1498" clip-path="url(#clipPath3)" stroke="none">&lt;&lt;Resource&gt;&gt;</text>
      <text x="-6.8872" font-size="13px" y="-119.2528" clip-path="url(#clipPath3)" stroke="none" font-weight="bold" xml:space="preserve">Users</text>
      <line stroke-linecap="square" clip-path="url(#clipPath3)" fill="none" x1="-85" x2="113" y1="-111" y2="-111" stroke-miterlimit="10"/>
      <text x="-81.8639" xml:space="preserve" y="-95.0483" clip-path="url(#clipPath3)" stroke="none"> </text>
      <line stroke-linecap="square" clip-path="url(#clipPath3)" fill="none" x1="-85" x2="113" y1="-87" y2="-87" stroke-miterlimit="10"/>
      <text x="-81.8639" xml:space="preserve" y="-71.0795" clip-path="url(#clipPath3)" stroke="none">&lt;&lt;GET&gt;&gt; list() : User[]</text>
    </g>
    <g fill="silver" text-rendering="geometricPrecision" shape-rendering="geometricPrecision" transform="matrix(1,0,0,1,376,223)" stroke="silver">
      <rect x="218" width="199" height="137" y="-158" clip-path="url(#clipPath2)" stroke="none"/>
      <rect x="217" y="-159" clip-path="url(#clipPath2)" fill="white" width="1" height="139" stroke="none"/>
      <rect x="218" y="-159" clip-path="url(#clipPath2)" fill="white" width="199" height="1" stroke="none"/>
      <rect x="218" y="-21" clip-path="url(#clipPath2)" fill="rgb(134,134,134)" width="200" height="1" stroke="none"/>
      <rect x="417" y="-159" clip-path="url(#clipPath2)" fill="rgb(134,134,134)" width="1" height="138" stroke="none"/>
    </g>
    <g text-rendering="geometricPrecision" stroke-miterlimit="1.45" shape-rendering="geometricPrecision" font-family="sans-serif" transform="matrix(1,0,0,1,376,223)" stroke-linecap="butt">
      <text x="270.0763" xml:space="preserve" y="-143.1498" clip-path="url(#clipPath4)" stroke="none">&lt;&lt;Resource&gt;&gt;</text>
      <text x="301.3416" font-size="13px" y="-119.2528" clip-path="url(#clipPath4)" stroke="none" font-weight="bold" xml:space="preserve">User</text>
      <line stroke-linecap="square" clip-path="url(#clipPath4)" fill="none" x1="218" x2="417" y1="-111" y2="-111" stroke-miterlimit="10"/>
      <text x="222.4961" xml:space="preserve" y="-95.0483" clip-path="url(#clipPath4)" stroke="none"> </text>
      <line stroke-linecap="square" clip-path="url(#clipPath4)" fill="none" x1="218" x2="417" y1="-87" y2="-87" stroke-miterlimit="10"/>
      <text x="222.4961" xml:space="preserve" y="-71.0795" clip-path="url(#clipPath4)" stroke="none">&lt;&lt;GET&gt;&gt; show()</text>
    </g>
    <g fill="silver" text-rendering="geometricPrecision" shape-rendering="geometricPrecision" transform="matrix(1,0,0,1,376,223)" stroke="silver">
      <rect x="-359" width="146" height="45" y="-206" clip-path="url(#clipPath2)" stroke="none"/>
      <rect x="-360" y="-207" clip-path="url(#clipPath2)" fill="white" width="1" height="47" stroke="none"/>
      <rect x="-359" y="-207" clip-path="url(#clipPath2)" fill="white" width="146" height="1" stroke="none"/>
      <rect x="-359" y="-161" clip-path="url(#clipPath2)" fill="rgb(134,134,134)" width="147" height="1" stroke="none"/>
      <rect x="-213" y="-207" clip-path="url(#clipPath2)" fill="rgb(134,134,134)" width="1" height="46" stroke="none"/>
    </g>
    <g text-rendering="geometricPrecision" stroke-miterlimit="1.45" shape-rendering="geometricPrecision" font-family="sans-serif" transform="matrix(1,0,0,1,376,223)" stroke-linecap="butt">
      <text x="-341.769" xml:space="preserve" y="-191.7931" clip-path="url(#clipPath5)" stroke="none">&lt;&lt;WebService&gt;&gt;</text>
      <text x="-350.2238" font-size="13px" y="-167.8962" clip-path="url(#clipPath5)" stroke="none" font-weight="bold" xml:space="preserve">WindyOakService</text>
      <line stroke-linecap="square" clip-path="url(#clipPath5)" fill="none" x1="-359" x2="-213" y1="-159" y2="-159" stroke-miterlimit="10"/>
      <text x="-355.0522" xml:space="preserve" y="-143.6916" clip-path="url(#clipPath5)" stroke="none"> </text>
      <line stroke-linecap="square" clip-path="url(#clipPath5)" fill="none" x1="-359" x2="-213" y1="-135" y2="-135" stroke-miterlimit="10"/>
    </g>
    <g fill="silver" text-rendering="geometricPrecision" shape-rendering="geometricPrecision" transform="matrix(1,0,0,1,376,223)" stroke="silver">
      <rect x="-85" width="199" height="137" y="10" clip-path="url(#clipPath2)" stroke="none"/>
      <rect x="-86" y="9" clip-path="url(#clipPath2)" fill="white" width="1" height="139" stroke="none"/>
      <rect x="-85" y="9" clip-path="url(#clipPath2)" fill="white" width="199" height="1" stroke="none"/>
      <rect x="-85" y="147" clip-path="url(#clipPath2)" fill="rgb(134,134,134)" width="200" height="1" stroke="none"/>
      <rect x="114" y="9" clip-path="url(#clipPath2)" fill="rgb(134,134,134)" width="1" height="138" stroke="none"/>
    </g>
    <g text-rendering="geometricPrecision" stroke-miterlimit="1.45" shape-rendering="geometricPrecision" font-family="sans-serif" transform="matrix(1,0,0,1,376,223)" stroke-linecap="butt">
      <text x="-34.2837" xml:space="preserve" y="25.8502" clip-path="url(#clipPath6)" stroke="none">&lt;&lt;Resource&gt;&gt;</text>
      <text x="-16.1579" font-size="13px" y="49.7472" clip-path="url(#clipPath6)" stroke="none" font-weight="bold" xml:space="preserve">Projects</text>
      <line stroke-linecap="square" clip-path="url(#clipPath6)" fill="none" x1="-85" x2="113" y1="57" y2="57" stroke-miterlimit="10"/>
      <text x="-81.8639" xml:space="preserve" y="73.9517" clip-path="url(#clipPath6)" stroke="none"> </text>
      <line stroke-linecap="square" clip-path="url(#clipPath6)" fill="none" x1="-85" x2="113" y1="81" y2="81" stroke-miterlimit="10"/>
      <text x="-81.8639" xml:space="preserve" y="97.9205" clip-path="url(#clipPath6)" stroke="none">&lt;&lt;GET&gt;&gt; list() : Project[]</text>
      <text x="-81.8639" xml:space="preserve" y="111.8892" clip-path="url(#clipPath6)" stroke="none">&lt;&lt;POST&gt;&gt; create() : Project</text>
    </g>
    <g fill="silver" text-rendering="geometricPrecision" shape-rendering="geometricPrecision" transform="matrix(1,0,0,1,376,223)" stroke="silver">
      <rect x="218" width="199" height="137" y="10" clip-path="url(#clipPath2)" stroke="none"/>
      <rect x="217" y="9" clip-path="url(#clipPath2)" fill="white" width="1" height="139" stroke="none"/>
      <rect x="218" y="9" clip-path="url(#clipPath2)" fill="white" width="199" height="1" stroke="none"/>
      <rect x="218" y="147" clip-path="url(#clipPath2)" fill="rgb(134,134,134)" width="200" height="1" stroke="none"/>
      <rect x="417" y="9" clip-path="url(#clipPath2)" fill="rgb(134,134,134)" width="1" height="138" stroke="none"/>
    </g>
    <g text-rendering="geometricPrecision" stroke-miterlimit="1.45" shape-rendering="geometricPrecision" font-family="sans-serif" transform="matrix(1,0,0,1,376,223)" stroke-linecap="butt">
      <text x="270.0763" xml:space="preserve" y="25.8502" clip-path="url(#clipPath7)" stroke="none">&lt;&lt;Resource&gt;&gt;</text>
      <text x="292.0709" font-size="13px" y="49.7472" clip-path="url(#clipPath7)" stroke="none" font-weight="bold" xml:space="preserve">Project</text>
      <line stroke-linecap="square" clip-path="url(#clipPath7)" fill="none" x1="218" x2="417" y1="57" y2="57" stroke-miterlimit="10"/>
      <text x="222.4961" xml:space="preserve" y="73.9517" clip-path="url(#clipPath7)" stroke="none"> </text>
      <line stroke-linecap="square" clip-path="url(#clipPath7)" fill="none" x1="218" x2="417" y1="81" y2="81" stroke-miterlimit="10"/>
      <text x="222.4961" xml:space="preserve" y="97.9205" clip-path="url(#clipPath7)" stroke="none">&lt;&lt;GET&gt;&gt; show()</text>
      <text x="222.4961" xml:space="preserve" y="111.8892" clip-path="url(#clipPath7)" stroke="none">&lt;&lt;PUT&gt;&gt; update()</text>
      <text x="222.4961" xml:space="preserve" y="125.858" clip-path="url(#clipPath7)" stroke="none">&lt;&lt;DELETE&gt;&gt; delete()</text>
    </g>
    <g fill="silver" text-rendering="geometricPrecision" shape-rendering="geometricPrecision" transform="matrix(1,0,0,1,376,223)" stroke="silver">
      <rect x="522" width="199" height="137" y="179" clip-path="url(#clipPath2)" stroke="none"/>
      <rect x="521" y="178" clip-path="url(#clipPath2)" fill="white" width="1" height="139" stroke="none"/>
      <rect x="522" y="178" clip-path="url(#clipPath2)" fill="white" width="199" height="1" stroke="none"/>
      <rect x="522" y="316" clip-path="url(#clipPath2)" fill="rgb(134,134,134)" width="200" height="1" stroke="none"/>
      <rect x="721" y="178" clip-path="url(#clipPath2)" fill="rgb(134,134,134)" width="1" height="138" stroke="none"/>
    </g>
    <g text-rendering="geometricPrecision" stroke-miterlimit="1.45" shape-rendering="geometricPrecision" font-family="sans-serif" transform="matrix(1,0,0,1,376,223)" stroke-linecap="butt">
      <text x="574.4362" xml:space="preserve" y="194.8502" clip-path="url(#clipPath8)" stroke="none">&lt;&lt;Resource&gt;&gt;</text>
      <text x="561.9884" font-size="13px" y="218.7471" clip-path="url(#clipPath8)" stroke="none" font-weight="bold" xml:space="preserve">ProjectRSSPosts</text>
      <line stroke-linecap="square" clip-path="url(#clipPath8)" fill="none" x1="522" x2="722" y1="226" y2="226" stroke-miterlimit="10"/>
      <text x="526.856" xml:space="preserve" y="242.9517" clip-path="url(#clipPath8)" stroke="none"> </text>
      <line stroke-linecap="square" clip-path="url(#clipPath8)" fill="none" x1="522" x2="722" y1="250" y2="250" stroke-miterlimit="10"/>
      <text x="526.856" xml:space="preserve" y="266.9205" clip-path="url(#clipPath8)" stroke="none">&lt;&lt;GET&gt;&gt; list() : Post[]</text>
    </g>
    <g fill="silver" text-rendering="geometricPrecision" shape-rendering="geometricPrecision" transform="matrix(1,0,0,1,376,223)" stroke="silver">
      <rect x="827" width="199" height="137" y="179" clip-path="url(#clipPath2)" stroke="none"/>
      <rect x="826" y="178" clip-path="url(#clipPath2)" fill="white" width="1" height="139" stroke="none"/>
      <rect x="827" y="178" clip-path="url(#clipPath2)" fill="white" width="199" height="1" stroke="none"/>
      <rect x="827" y="316" clip-path="url(#clipPath2)" fill="rgb(134,134,134)" width="200" height="1" stroke="none"/>
      <rect x="1026" y="178" clip-path="url(#clipPath2)" fill="rgb(134,134,134)" width="1" height="138" stroke="none"/>
    </g>
    <g text-rendering="geometricPrecision" stroke-miterlimit="1.45" shape-rendering="geometricPrecision" font-family="sans-serif" transform="matrix(1,0,0,1,376,223)" stroke-linecap="butt">
      <text x="878.7961" xml:space="preserve" y="194.8502" clip-path="url(#clipPath9)" stroke="none">&lt;&lt;Resource&gt;&gt;</text>
      <text x="870.2172" font-size="13px" y="218.7471" clip-path="url(#clipPath9)" stroke="none" font-weight="bold" xml:space="preserve">ProjectRSSPost</text>
      <line stroke-linecap="square" clip-path="url(#clipPath9)" fill="none" x1="827" x2="1026" y1="226" y2="226" stroke-miterlimit="10"/>
      <text x="831.2159" xml:space="preserve" y="242.9517" clip-path="url(#clipPath9)" stroke="none"> </text>
      <line stroke-linecap="square" clip-path="url(#clipPath9)" fill="none" x1="827" x2="1026" y1="250" y2="250" stroke-miterlimit="10"/>
      <text x="831.2159" xml:space="preserve" y="266.9205" clip-path="url(#clipPath9)" stroke="none">&lt;&lt;GET&gt;&gt; show()</text>
    </g>
    <g fill="silver" text-rendering="geometricPrecision" shape-rendering="geometricPrecision" transform="matrix(1,0,0,1,376,223)" stroke="silver">
      <rect x="522" width="199" height="137" y="10" clip-path="url(#clipPath2)" stroke="none"/>
      <rect x="521" y="9" clip-path="url(#clipPath2)" fill="white" width="1" height="139" stroke="none"/>
      <rect x="522" y="9" clip-path="url(#clipPath2)" fill="white" width="199" height="1" stroke="none"/>
      <rect x="522" y="147" clip-path="url(#clipPath2)" fill="rgb(134,134,134)" width="200" height="1" stroke="none"/>
      <rect x="721" y="9" clip-path="url(#clipPath2)" fill="rgb(134,134,134)" width="1" height="138" stroke="none"/>
    </g>
    <g text-rendering="geometricPrecision" stroke-miterlimit="1.45" shape-rendering="geometricPrecision" font-family="sans-serif" transform="matrix(1,0,0,1,376,223)" stroke-linecap="butt">
      <text x="574.4362" xml:space="preserve" y="25.8502" clip-path="url(#clipPath10)" stroke="none">&lt;&lt;Resource&gt;&gt;</text>
      <text x="583.6688" font-size="13px" y="49.7472" clip-path="url(#clipPath10)" stroke="none" font-weight="bold" xml:space="preserve">Comments</text>
      <line stroke-linecap="square" clip-path="url(#clipPath10)" fill="none" x1="522" x2="722" y1="57" y2="57" stroke-miterlimit="10"/>
      <text x="526.856" xml:space="preserve" y="73.9517" clip-path="url(#clipPath10)" stroke="none"> </text>
      <line stroke-linecap="square" clip-path="url(#clipPath10)" fill="none" x1="522" x2="722" y1="81" y2="81" stroke-miterlimit="10"/>
      <text x="526.856" xml:space="preserve" y="97.9205" clip-path="url(#clipPath10)" stroke="none">&lt;&lt;GET&gt;&gt; list() : Comment[]</text>
      <text x="526.856" xml:space="preserve" y="111.8892" clip-path="url(#clipPath10)" stroke="none">&lt;&lt;POST&gt;&gt; create() : Comment</text>
    </g>
    <g fill="silver" text-rendering="geometricPrecision" shape-rendering="geometricPrecision" transform="matrix(1,0,0,1,376,223)" stroke="silver">
      <rect x="827" width="199" height="137" y="10" clip-path="url(#clipPath2)" stroke="none"/>
      <rect x="826" y="9" clip-path="url(#clipPath2)" fill="white" width="1" height="139" stroke="none"/>
      <rect x="827" y="9" clip-path="url(#clipPath2)" fill="white" width="199" height="1" stroke="none"/>
      <rect x="827" y="147" clip-path="url(#clipPath2)" fill="rgb(134,134,134)" width="200" height="1" stroke="none"/>
      <rect x="1026" y="9" clip-path="url(#clipPath2)" fill="rgb(134,134,134)" width="1" height="138" stroke="none"/>
    </g>
    <g text-rendering="geometricPrecision" stroke-miterlimit="1.45" shape-rendering="geometricPrecision" font-family="sans-serif" transform="matrix(1,0,0,1,376,223)" stroke-linecap="butt">
      <text x="878.7961" xml:space="preserve" y="25.8502" clip-path="url(#clipPath11)" stroke="none">&lt;&lt;Resource&gt;&gt;</text>
      <text x="891.8976" font-size="13px" y="49.7472" clip-path="url(#clipPath11)" stroke="none" font-weight="bold" xml:space="preserve">Comment</text>
      <line stroke-linecap="square" clip-path="url(#clipPath11)" fill="none" x1="827" x2="1026" y1="57" y2="57" stroke-miterlimit="10"/>
      <text x="831.2159" xml:space="preserve" y="73.9517" clip-path="url(#clipPath11)" stroke="none"> </text>
      <line stroke-linecap="square" clip-path="url(#clipPath11)" fill="none" x1="827" x2="1026" y1="81" y2="81" stroke-miterlimit="10"/>
      <text x="831.2159" xml:space="preserve" y="97.9205" clip-path="url(#clipPath11)" stroke="none">&lt;&lt;GET&gt;&gt; show()</text>
      <text x="831.2159" xml:space="preserve" y="111.8892" clip-path="url(#clipPath11)" stroke="none">&lt;&lt;PUT&gt;&gt; update()</text>
      <text x="831.2159" xml:space="preserve" y="125.858" clip-path="url(#clipPath11)" stroke="none">&lt;&lt;DELETE&gt;&gt; delete()</text>
    </g>
    <g fill="silver" text-rendering="geometricPrecision" shape-rendering="geometricPrecision" transform="matrix(1,0,0,1,376,223)" stroke="silver">
      <rect x="-85" width="199" height="137" y="348" clip-path="url(#clipPath2)" stroke="none"/>
      <rect x="-86" y="347" clip-path="url(#clipPath2)" fill="white" width="1" height="139" stroke="none"/>
      <rect x="-85" y="347" clip-path="url(#clipPath2)" fill="white" width="199" height="1" stroke="none"/>
      <rect x="-85" y="485" clip-path="url(#clipPath2)" fill="rgb(134,134,134)" width="200" height="1" stroke="none"/>
      <rect x="114" y="347" clip-path="url(#clipPath2)" fill="rgb(134,134,134)" width="1" height="138" stroke="none"/>
    </g>
    <g text-rendering="geometricPrecision" stroke-miterlimit="1.45" shape-rendering="geometricPrecision" font-family="sans-serif" transform="matrix(1,0,0,1,376,223)" stroke-linecap="butt">
      <text x="-34.2837" xml:space="preserve" y="363.8502" clip-path="url(#clipPath12)" stroke="none">&lt;&lt;Resource&gt;&gt;</text>
      <text x="-11.667" font-size="13px" y="387.7472" clip-path="url(#clipPath12)" stroke="none" font-weight="bold" xml:space="preserve">Recent</text>
      <line stroke-linecap="square" clip-path="url(#clipPath12)" fill="none" x1="-85" x2="113" y1="395" y2="395" stroke-miterlimit="10"/>
      <text x="-81.8639" xml:space="preserve" y="411.9518" clip-path="url(#clipPath12)" stroke="none"> </text>
      <line stroke-linecap="square" clip-path="url(#clipPath12)" fill="none" x1="-85" x2="113" y1="419" y2="419" stroke-miterlimit="10"/>
      <text x="-81.8639" xml:space="preserve" y="435.9205" clip-path="url(#clipPath12)" stroke="none"> </text>
    </g>
    <g fill="silver" text-rendering="geometricPrecision" shape-rendering="geometricPrecision" transform="matrix(1,0,0,1,376,223)" stroke="silver">
      <rect x="218" width="199" height="137" y="348" clip-path="url(#clipPath2)" stroke="none"/>
      <rect x="217" y="347" clip-path="url(#clipPath2)" fill="white" width="1" height="139" stroke="none"/>
      <rect x="218" y="347" clip-path="url(#clipPath2)" fill="white" width="199" height="1" stroke="none"/>
      <rect x="218" y="485" clip-path="url(#clipPath2)" fill="rgb(134,134,134)" width="200" height="1" stroke="none"/>
      <rect x="417" y="347" clip-path="url(#clipPath2)" fill="rgb(134,134,134)" width="1" height="138" stroke="none"/>
    </g>
    <g text-rendering="geometricPrecision" stroke-miterlimit="1.45" shape-rendering="geometricPrecision" font-family="sans-serif" transform="matrix(1,0,0,1,376,223)" stroke-linecap="butt">
      <text x="270.0763" xml:space="preserve" y="363.8502" clip-path="url(#clipPath13)" stroke="none">&lt;&lt;Resource&gt;&gt;</text>
      <text x="262.7923" font-size="13px" y="387.7472" clip-path="url(#clipPath13)" stroke="none" font-weight="bold" xml:space="preserve">RecentProjects</text>
      <line stroke-linecap="square" clip-path="url(#clipPath13)" fill="none" x1="218" x2="417" y1="395" y2="395" stroke-miterlimit="10"/>
      <text x="222.4961" xml:space="preserve" y="411.9518" clip-path="url(#clipPath13)" stroke="none"> </text>
      <line stroke-linecap="square" clip-path="url(#clipPath13)" fill="none" x1="218" x2="417" y1="419" y2="419" stroke-miterlimit="10"/>
      <text x="222.4961" xml:space="preserve" y="435.9205" clip-path="url(#clipPath13)" stroke="none">&lt;&lt;GET&gt;&gt; list() : Project[]</text>
    </g>
    <g fill="silver" text-rendering="geometricPrecision" shape-rendering="geometricPrecision" transform="matrix(1,0,0,1,376,223)" stroke="silver">
      <rect x="-85" width="199" height="137" y="517" clip-path="url(#clipPath2)" stroke="none"/>
      <rect x="-86" y="516" clip-path="url(#clipPath2)" fill="white" width="1" height="139" stroke="none"/>
      <rect x="-85" y="516" clip-path="url(#clipPath2)" fill="white" width="199" height="1" stroke="none"/>
      <rect x="-85" y="654" clip-path="url(#clipPath2)" fill="rgb(134,134,134)" width="200" height="1" stroke="none"/>
      <rect x="114" y="516" clip-path="url(#clipPath2)" fill="rgb(134,134,134)" width="1" height="138" stroke="none"/>
    </g>
    <g text-rendering="geometricPrecision" stroke-miterlimit="1.45" shape-rendering="geometricPrecision" font-family="sans-serif" transform="matrix(1,0,0,1,376,223)" stroke-linecap="butt">
      <text x="-34.2837" xml:space="preserve" y="532.8502" clip-path="url(#clipPath14)" stroke="none">&lt;&lt;Resource&gt;&gt;</text>
      <text x="-3.5991" font-size="13px" y="556.7471" clip-path="url(#clipPath14)" stroke="none" font-weight="bold" xml:space="preserve">Tags</text>
      <line stroke-linecap="square" clip-path="url(#clipPath14)" fill="none" x1="-85" x2="113" y1="564" y2="564" stroke-miterlimit="10"/>
      <text x="-81.8639" xml:space="preserve" y="580.9517" clip-path="url(#clipPath14)" stroke="none"> </text>
      <line stroke-linecap="square" clip-path="url(#clipPath14)" fill="none" x1="-85" x2="113" y1="588" y2="588" stroke-miterlimit="10"/>
      <text x="-81.8639" xml:space="preserve" y="604.9205" clip-path="url(#clipPath14)" stroke="none">&lt;&lt;GET&gt;&gt; list() : Tag[]</text>
      <text x="-81.8639" xml:space="preserve" y="618.8892" clip-path="url(#clipPath14)" stroke="none">&lt;&lt;POST&gt;&gt; create() : Tag</text>
    </g>
    <g fill="silver" text-rendering="geometricPrecision" shape-rendering="geometricPrecision" transform="matrix(1,0,0,1,376,223)" stroke="silver">
      <rect x="218" width="199" height="137" y="517" clip-path="url(#clipPath2)" stroke="none"/>
      <rect x="217" y="516" clip-path="url(#clipPath2)" fill="white" width="1" height="139" stroke="none"/>
      <rect x="218" y="516" clip-path="url(#clipPath2)" fill="white" width="199" height="1" stroke="none"/>
      <rect x="218" y="654" clip-path="url(#clipPath2)" fill="rgb(134,134,134)" width="200" height="1" stroke="none"/>
      <rect x="417" y="516" clip-path="url(#clipPath2)" fill="rgb(134,134,134)" width="1" height="138" stroke="none"/>
    </g>
    <g text-rendering="geometricPrecision" stroke-miterlimit="1.45" shape-rendering="geometricPrecision" font-family="sans-serif" transform="matrix(1,0,0,1,376,223)" stroke-linecap="butt">
      <text x="270.0763" xml:space="preserve" y="532.8502" clip-path="url(#clipPath15)" stroke="none">&lt;&lt;Resource&gt;&gt;</text>
      <text x="304.6297" font-size="13px" y="556.7471" clip-path="url(#clipPath15)" stroke="none" font-weight="bold" xml:space="preserve">Tag</text>
      <line stroke-linecap="square" clip-path="url(#clipPath15)" fill="none" x1="218" x2="417" y1="564" y2="564" stroke-miterlimit="10"/>
      <text x="222.4961" xml:space="preserve" y="580.9517" clip-path="url(#clipPath15)" stroke="none"> </text>
      <line stroke-linecap="square" clip-path="url(#clipPath15)" fill="none" x1="218" x2="417" y1="588" y2="588" stroke-miterlimit="10"/>
      <text x="222.4961" xml:space="preserve" y="604.9205" clip-path="url(#clipPath15)" stroke="none">&lt;&lt;GET&gt;&gt; show()</text>
      <text x="222.4961" xml:space="preserve" y="618.8892" clip-path="url(#clipPath15)" stroke="none">&lt;&lt;PUT&gt;&gt; update()</text>
      <text x="222.4961" xml:space="preserve" y="632.858" clip-path="url(#clipPath15)" stroke="none">&lt;&lt;DELETE&gt;&gt; delete()</text>
      <path fill="none" stroke-dasharray="6,2" d="M114.3167 -89.7885 L212.4535 -89.7885" clip-path="url(#clipPath2)"/>
      <path stroke-dasharray="6,2" d="M216.4535 -89.7885 L204.4535 -95.7885 L216.4535 -89.7885 L204.4535 -83.7885 Z" clip-path="url(#clipPath2)" stroke="none"/>
      <path fill="none" stroke-miterlimit="10" d="M216.4535 -89.7885 L204.4535 -95.7885 L216.4535 -89.7885 L204.4535 -83.7885 Z" clip-path="url(#clipPath2)" stroke-linecap="square"/>
      <text x="137.7039" xml:space="preserve" y="-74.6498" clip-path="url(#clipPath2)" stroke="none">/{userid}</text>
      <path fill="none" stroke-dasharray="6,2" d="M-286.0522 -160.4263 L-286.0522 -89.7885 L-91.8598 -89.7885" clip-path="url(#clipPath2)"/>
      <path stroke-dasharray="6,2" d="M-87.8598 -89.7885 L-99.8598 -95.7885 L-87.8598 -89.7885 L-99.8598 -83.7885 Z" clip-path="url(#clipPath2)" stroke="none"/>
      <path fill="none" stroke-miterlimit="10" d="M-87.8598 -89.7885 L-99.8598 -95.7885 L-87.8598 -89.7885 L-99.8598 -83.7885 Z" clip-path="url(#clipPath2)" stroke-linecap="square"/>
      <text x="-209.2549" xml:space="preserve" y="-74.6498" clip-path="url(#clipPath2)" stroke="none">/users</text>
      <path fill="none" stroke-dasharray="6,2" d="M-286.0522 -160.3981 L-286.0522 79.2115 L-91.8598 79.2115" clip-path="url(#clipPath2)"/>
      <path stroke-dasharray="6,2" d="M-87.8598 79.2115 L-99.8598 73.2115 L-87.8598 79.2115 L-99.8598 85.2115 Z" clip-path="url(#clipPath2)" stroke="none"/>
      <path fill="none" stroke-miterlimit="10" d="M-87.8598 79.2115 L-99.8598 73.2115 L-87.8598 79.2115 L-99.8598 85.2115 Z" clip-path="url(#clipPath2)" stroke-linecap="square"/>
      <text x="-217.124" xml:space="preserve" y="94.3502" clip-path="url(#clipPath2)" stroke="none">/projects</text>
      <path fill="none" stroke-dasharray="6,2" d="M114.3167 79.2115 L212.4535 79.2115" clip-path="url(#clipPath2)"/>
      <path stroke-dasharray="6,2" d="M216.4535 79.2115 L204.4535 73.2115 L216.4535 79.2115 L204.4535 85.2115 Z" clip-path="url(#clipPath2)" stroke="none"/>
      <path fill="none" stroke-miterlimit="10" d="M216.4535 79.2115 L204.4535 73.2115 L216.4535 79.2115 L204.4535 85.2115 Z" clip-path="url(#clipPath2)" stroke-linecap="square"/>
      <text x="129.8348" xml:space="preserve" y="94.3502" clip-path="url(#clipPath2)" stroke="none">/{projectid}</text>
      <path fill="none" stroke-dasharray="6,2" d="M434.188 79.2354 L434.188 248.2115 L516.8441 248.2115" clip-path="url(#clipPath2)"/>
      <path stroke-dasharray="6,2" d="M520.8441 248.2115 L508.8441 242.2115 L520.8441 248.2115 L508.8441 254.2115 Z" clip-path="url(#clipPath2)" stroke="none"/>
      <path fill="none" stroke-miterlimit="10" d="M520.8441 248.2115 L508.8441 242.2115 L520.8441 248.2115 L508.8441 254.2115 Z" clip-path="url(#clipPath2)" stroke-linecap="square"/>
      <text x="455.354" xml:space="preserve" y="263.3502" clip-path="url(#clipPath2)" stroke="none">/posts</text>
      <path fill="none" stroke-dasharray="6,2" d="M723.0366 248.2115 L821.1733 248.2115" clip-path="url(#clipPath2)"/>
      <path stroke-dasharray="6,2" d="M825.1733 248.2115 L813.1733 242.2115 L825.1733 248.2115 L813.1733 254.2115 Z" clip-path="url(#clipPath2)" stroke="none"/>
      <path fill="none" stroke-miterlimit="10" d="M825.1733 248.2115 L813.1733 242.2115 L825.1733 248.2115 L813.1733 254.2115 Z" clip-path="url(#clipPath2)" stroke-linecap="square"/>
      <text x="746.5527" xml:space="preserve" y="263.3502" clip-path="url(#clipPath2)" stroke="none">/{postid}</text>
      <path fill="none" stroke-dasharray="6,2" d="M418.6766 79.2115 L516.8134 79.2115" clip-path="url(#clipPath2)"/>
      <path stroke-dasharray="6,2" d="M520.8134 79.2115 L508.8134 73.2115 L520.8134 79.2115 L508.8134 85.2115 Z" clip-path="url(#clipPath2)" stroke="none"/>
      <path fill="none" stroke-miterlimit="10" d="M520.8134 79.2115 L508.8134 73.2115 L520.8134 79.2115 L508.8134 85.2115 Z" clip-path="url(#clipPath2)" stroke-linecap="square"/>
      <text x="436.6292" xml:space="preserve" y="94.3502" clip-path="url(#clipPath2)" stroke="none">/comments</text>
      <path fill="none" stroke-dasharray="6,2" d="M723.0366 79.2115 L821.1733 79.2115" clip-path="url(#clipPath2)"/>
      <path stroke-dasharray="6,2" d="M825.1733 79.2115 L813.1733 73.2115 L825.1733 79.2115 L813.1733 85.2115 Z" clip-path="url(#clipPath2)" stroke="none"/>
      <path fill="none" stroke-miterlimit="10" d="M825.1733 79.2115 L813.1733 73.2115 L825.1733 79.2115 L813.1733 85.2115 Z" clip-path="url(#clipPath2)" stroke-linecap="square"/>
      <text x="731.0048" xml:space="preserve" y="94.3502" clip-path="url(#clipPath2)" stroke="none">/{commentid}</text>
      <path fill="none" stroke-dasharray="6,2" d="M-286.0522 -160.4087 L-286.0522 417.2115 L-91.8598 417.2115" clip-path="url(#clipPath2)"/>
      <path stroke-dasharray="6,2" d="M-87.8598 417.2115 L-99.8598 411.2115 L-87.8598 417.2115 L-99.8598 423.2115 Z" clip-path="url(#clipPath2)" stroke="none"/>
      <path fill="none" stroke-miterlimit="10" d="M-87.8598 417.2115 L-99.8598 411.2115 L-87.8598 417.2115 L-99.8598 423.2115 Z" clip-path="url(#clipPath2)" stroke-linecap="square"/>
      <text x="-212.3457" xml:space="preserve" y="432.3502" clip-path="url(#clipPath2)" stroke="none">/recent</text>
      <path fill="none" stroke-dasharray="6,2" d="M114.3167 417.2115 L212.4535 417.2115" clip-path="url(#clipPath2)"/>
      <path stroke-dasharray="6,2" d="M216.4535 417.2115 L204.4535 411.2115 L216.4535 417.2115 L204.4535 423.2115 Z" clip-path="url(#clipPath2)" stroke="none"/>
      <path fill="none" stroke-miterlimit="10" d="M216.4535 417.2115 L204.4535 411.2115 L216.4535 417.2115 L204.4535 423.2115 Z" clip-path="url(#clipPath2)" stroke-linecap="square"/>
      <text x="139.8192" xml:space="preserve" y="432.3502" clip-path="url(#clipPath2)" stroke="none">/projects</text>
      <path fill="none" stroke-dasharray="6,2" d="M-286.0522 -160.4117 L-286.0522 586.2115 L-91.8598 586.2115" clip-path="url(#clipPath2)"/>
      <path stroke-dasharray="6,2" d="M-87.8598 586.2115 L-99.8598 580.2115 L-87.8598 586.2115 L-99.8598 592.2115 Z" clip-path="url(#clipPath2)" stroke="none"/>
      <path fill="none" stroke-miterlimit="10" d="M-87.8598 586.2115 L-99.8598 580.2115 L-87.8598 586.2115 L-99.8598 592.2115 Z" clip-path="url(#clipPath2)" stroke-linecap="square"/>
      <text x="-212.4361" xml:space="preserve" y="620.3658" clip-path="url(#clipPath2)" stroke="none">/tags</text>
      <path fill="none" stroke-dasharray="6,2" d="M114.3167 586.2115 L212.4535 586.2115" clip-path="url(#clipPath2)"/>
      <path stroke-dasharray="6,2" d="M216.4535 586.2115 L204.4535 580.2115 L216.4535 586.2115 L204.4535 592.2115 Z" clip-path="url(#clipPath2)" stroke="none"/>
      <path fill="none" stroke-miterlimit="10" d="M216.4535 586.2115 L204.4535 580.2115 L216.4535 586.2115 L204.4535 592.2115 Z" clip-path="url(#clipPath2)" stroke-linecap="square"/>
      <text x="126.4743" xml:space="preserve" y="601.3502" clip-path="url(#clipPath2)" stroke="none">/{tagName}</text>
    </g>
  </g>
</svg>
